<svg width="60" height="60" viewBox="0 0 60 60" fill="none" xmlns="http://www.w3.org/2000/svg">
    <g clip-path="url(#clip0_41_914)">
        <rect width="60" height="60" rx="10" fill="white" />
        <path
            d="M33.6797 19.6875C35.2699 20.1143 36.7198 20.9518 37.884 22.116C39.0482 23.2802 39.8857 24.7301 40.3125 26.3203"
            stroke="#090909" stroke-width="2" stroke-linecap="round" stroke-linejoin="round" />
        <path
            d="M32.707 23.3086C33.6634 23.5626 34.5357 24.0649 35.2354 24.7646C35.9351 25.4643 36.4374 26.3366 36.6914 27.293"
            stroke="#090909" stroke-width="2" stroke-linecap="round" stroke-linejoin="round" />
        <path
            d="M25.8398 29.6252C26.8046 31.6174 28.4155 33.2242 30.4102 34.1838C30.5573 34.2535 30.72 34.2836 30.8824 34.2713C31.0447 34.259 31.201 34.2046 31.3359 34.1135L34.2656 32.1565C34.3951 32.0687 34.5446 32.0151 34.7004 32.0008C34.8561 31.9864 35.013 32.0118 35.1562 32.0744L40.6406 34.4299C40.8281 34.5079 40.9847 34.6454 41.0863 34.8211C41.1879 34.9969 41.229 35.2012 41.2031 35.4026C41.0293 36.7593 40.3671 38.0062 39.3404 38.91C38.3137 39.8137 36.9928 40.3124 35.625 40.3127C31.3981 40.3127 27.3443 38.6336 24.3555 35.6447C21.3666 32.6559 19.6875 28.6021 19.6875 24.3752C19.6878 23.0074 20.1865 21.6866 21.0903 20.6599C21.994 19.6331 23.2409 18.9709 24.5977 18.7971C24.799 18.7712 25.0033 18.8123 25.1791 18.9139C25.3548 19.0156 25.4923 19.1722 25.5703 19.3596L27.9258 24.8557C27.987 24.9967 28.0127 25.1507 28.0004 25.3039C27.9881 25.4572 27.9384 25.6051 27.8555 25.7346L25.8984 28.7112C25.8113 28.8458 25.7602 29.0005 25.7499 29.1605C25.7397 29.3206 25.7706 29.4806 25.8398 29.6252Z"
            stroke="#090909" stroke-width="2" stroke-linecap="round" stroke-linejoin="round" />
    </g>
    <defs>
        <clipPath id="clip0_41_914">
            <rect width="60" height="60" fill="white" />
        </clipPath>
    </defs>
</svg>
